<svg xmlns="http://www.w3.org/2000/svg" width="583" height="166" viewBox="0 0 583 166" version="1.1">
	<path d="M 32.688 1.094 C 19.965 2.954, 9.462 10.356, 4.691 20.824 C 3.031 24.466, 2.553 27.490, 2.530 34.500 C 2.474 51.490, 8.427 58.769, 31.653 70.107 C 49.157 78.651, 52.466 81.794, 51.755 89.195 C 50.911 97.979, 44.656 102.174, 32.497 102.111 C 24.508 102.069, 18.146 100.295, 10.265 95.912 C 3.837 92.336, 2.226 92.276, 0.975 95.565 C -0.390 99.155, -0.215 108.018, 1.279 110.970 C 6.570 121.425, 36.159 125.770, 54.499 118.785 C 62.970 115.558, 71.961 106.650, 74.973 98.500 C 76.820 93.500, 77.121 91, 76.780 83.500 C 76.029 67.005, 70.582 60.683, 47.542 49.568 C 30.789 41.485, 27 38.313, 27 32.374 C 27 19.792, 41.611 16.161, 59.521 24.293 C 69.567 28.853, 70.333 28.376, 70.333 17.561 C 70.333 11.808, 69.922 9.572, 68.595 8.105 C 65.883 5.108, 58.237 2.270, 49.678 1.084 C 41.033 -0.114, 40.947 -0.114, 32.688 1.094 M 208.340 1.043 C 189.880 2.942, 175.556 11.470, 165.903 26.310 C 150.136 50.546, 154.060 90.366, 173.988 108.370 C 179.243 113.118, 190.449 118.669, 198.590 120.557 C 212.391 123.758, 240.184 121.503, 250.758 116.325 C 256.772 113.379, 256.969 112.356, 256.985 83.885 C 256.999 59.473, 256.903 58.146, 254.927 55.635 L 252.855 53 230.963 53 C 205.751 53, 207 52.486, 207 62.863 C 207 71.520, 207.739 72, 221.071 72 L 232 72 232 85.422 L 232 98.845 228.250 100.133 C 222.292 102.180, 209.501 101.606, 202.593 98.982 C 187.301 93.174, 178.746 74.673, 181.767 53.945 C 183.836 39.749, 190.571 29.803, 201.855 24.283 C 206.316 22.100, 209.152 21.498, 216.489 21.177 C 227.296 20.705, 234.855 22.361, 246.279 27.704 C 252.291 30.516, 254.328 31.072, 255.247 30.153 C 256.817 28.583, 257.452 16.229, 256.138 12.823 C 253.091 4.925, 228.798 -1.062, 208.340 1.043 M 109.250 3.031 L 107 3.936 107 61.409 C 107 104.061, 107.300 119.068, 108.165 119.602 C 110.363 120.960, 123.660 121.267, 127.363 120.045 L 131 118.845 131 61.398 L 131 3.950 128.435 2.975 C 125.259 1.768, 112.299 1.806, 109.250 3.031 M 323.678 3.250 C 321.579 4.790, 284.012 112.154, 284.005 116.633 C 283.999 120.436, 285.436 120.967, 295.795 120.986 C 305.413 121.004, 306.535 119.845, 311.021 105.250 L 314.479 94 336.656 94 L 358.834 94 363.004 106.511 C 365.707 114.622, 367.823 119.370, 369.021 120.011 C 370.037 120.555, 374.862 121, 379.743 121 C 390.309 121, 392.626 119.882, 391.697 115.235 C 391.360 113.549, 382.725 88.169, 372.508 58.835 C 359.725 22.134, 353.284 4.954, 351.855 3.750 C 350.126 2.292, 347.740 2, 337.580 2 C 329.397 2, 324.821 2.411, 323.678 3.250 M 328.741 49.253 C 324.483 62.064, 321 73.098, 321 73.773 C 321 74.690, 324.921 75, 336.500 75 C 348.338 75, 352 74.701, 352 73.734 C 352 73.038, 348.508 62.004, 344.241 49.214 L 336.481 25.960 328.741 49.253 M 475 45.907 C 475 46.779, 487.375 57.331, 503.887 70.538 L 511.275 76.447 506.553 80.602 C 499.846 86.504, 481.163 99.785, 470 106.586 C 446.626 120.826, 416.155 133.863, 392.177 139.883 C 354.495 149.342, 312.015 149.923, 279.314 141.427 C 274.043 140.057, 269.502 139.164, 269.224 139.443 C 267.423 141.244, 306.139 153.915, 327 158.352 C 409.050 175.803, 479.537 162.595, 538.669 118.691 L 549.379 110.739 551.839 113.620 C 562.648 126.276, 580.532 146, 581.198 146 C 581.649 146, 581.902 123.388, 581.759 95.750 L 581.500 45.500 528.250 45.241 C 496.135 45.085, 475 45.349, 475 45.907" stroke="none" fill="black" fill-rule="evenodd"/>
</svg>