<?xml version="1.0" encoding="UTF-8" standalone="no"?>
<!-- Created with Inkscape (http://www.inkscape.org/) -->

<svg
   width="940"
   height="220"
   viewBox="0 0 248.70832 58.208334"
   version="1.1"
   id="svg348"
   inkscape:export-filename="/home/michel/git/codata/pbdoc/sigaex/src/main/webapp/imagens/pbdoc-b.png"
   inkscape:export-xdpi="96"
   inkscape:export-ydpi="96"
   inkscape:version="1.1 (ce6663b3b7, 2021-05-25)"
   sodipodi:docname="pbdoc-b.svg"
   xmlns:inkscape="http://www.inkscape.org/namespaces/inkscape"
   xmlns:sodipodi="http://sodipodi.sourceforge.net/DTD/sodipodi-0.dtd"
   xmlns="http://www.w3.org/2000/svg"
   xmlns:svg="http://www.w3.org/2000/svg">
  <sodipodi:namedview
     id="namedview350"
     pagecolor="#ffffff"
     bordercolor="#999999"
     borderopacity="1"
     inkscape:pageshadow="0"
     inkscape:pageopacity="0"
     inkscape:pagecheckerboard="false"
     inkscape:document-units="mm"
     showgrid="false"
     units="px"
     height="160px"
     inkscape:zoom="0.71268238"
     inkscape:cx="549.33307"
     inkscape:cy="-55.424409"
     inkscape:window-width="1920"
     inkscape:window-height="972"
     inkscape:window-x="1920"
     inkscape:window-y="27"
     inkscape:window-maximized="1"
     inkscape:current-layer="layer1" />
  <defs
     id="defs345" />
  <g
     inkscape:label="Layer 1"
     inkscape:groupmode="layer"
     id="layer1">
    <path
       style="fill:#ffffff;fill-opacity:1;stroke-width:0.0617988"
       d="m 67.907288,9.841412 c -18.587517,0 -18.898396,0.00146 -19.366412,0.1214564 -0.718497,0.1837606 -1.396651,0.5653046 -1.918384,1.0787646 -0.768013,0.75584 -0.707691,0.62977 -2.169971,4.516089 -0.537134,1.42755 -1.145846,3.033905 -1.3526,3.569722 l -0.375682,0.974278 -10.166008,0.01657 c -0.814858,0.0015 -1.248528,0.0028 -1.939885,0.0044 0.495633,0.01657 1.003062,0.02788 1.533652,0.02788 6.601937,-0.04723 13.20374,-0.05694 19.805836,-0.06109 10.664839,-0.0066 9.76642,-0.05898 10.780077,0.43717 1.013649,0.496132 1.813605,1.44498 2.27973,2.713499 0.129172,0.351544 0.958658,2.472418 1.843319,4.712981 0.884668,2.240564 2.014037,5.10313 2.509446,6.361298 0.495402,1.258162 1.083932,2.75314 1.308094,3.321905 2.908507,7.3797 3.921091,9.96307 4.132107,10.551119 h 0.543152 l 0.432638,-0.144842 c 0.802896,-0.269395 1.255962,-0.55078 1.853888,-1.150807 0.354434,-0.35569 0.616778,-0.681484 0.723066,-0.898083 0.148032,-0.301648 0.980958,-2.41577 3.201966,-8.126547 0.370128,-0.951703 0.982629,-2.522949 1.360896,-3.491644 0.378274,-0.968695 0.92044,-2.359166 1.204746,-3.089934 1.516599,-3.898237 1.756365,-4.513416 1.902544,-4.881961 0.08762,-0.220928 1.107077,-2.834036 2.265391,-5.806833 2.265113,-5.813416 2.274445,-5.842861 2.202407,-6.78903 C 90.36172,11.973935 89.052865,10.41814 87.264649,9.9607955 86.808335,9.8443316 86.373522,9.8416018 67.907288,9.8416018 Z"
       id="path902"
       inkscape:export-filename="/home/michel/git/codata/pbdoc/sigaex/src/main/webapp/imagens/pbdoc.png"
       inkscape:export-xdpi="96.245865"
       inkscape:export-ydpi="96.245865" />
    <path
       style="fill:#ffffff;fill-opacity:1;stroke-width:0.0617988"
       d="m 29.051784,48.100668 c -0.665037,-0.18317 -1.357007,-0.678025 -1.59155,-1.138195 -0.09848,-0.193205 -0.536887,-1.294305 -2.291087,-5.754235 -0.462366,-1.175535 -1.733357,-4.400953 -3.275347,-8.311921 -3.245929,-8.232683 -2.965566,-8.058228 -2.964369,-8.580636 0.0015,-0.646383 0.140753,-1.244358 0.425606,-1.827392 0.443936,-0.908646 1.10314,-1.557066 2.014371,-1.981411 0.89761,-0.41801 0.323072,-0.397842 11.333809,-0.397842 5.471703,0 9.976802,-0.0028 9.976802,-0.0028 0,0 -0.819317,2.833969 -4.343635,11.770719 -0.301592,0.764758 -1.041319,2.641895 -1.643838,4.171413 -0.602518,1.529518 -1.56678,3.976746 -2.142805,5.438281 -0.576023,1.461541 -1.240176,3.157916 -1.475894,3.769723 -0.235718,0.611808 -0.490609,1.233651 -0.566424,1.381874 -0.181778,0.35539 -0.742228,0.932221 -1.119033,1.15174 -0.633341,0.36896 -1.639773,0.50292 -2.336606,0.310998 z"
       id="path904"
       inkscape:connector-curvature="0"
       sodipodi:nodetypes="ccsscscscssccccc"
       inkscape:export-filename="/home/michel/git/codata/pbdoc/sigaex/src/main/webapp/imagens/pbdoc.png"
       inkscape:export-xdpi="96.245865"
       inkscape:export-ydpi="96.245865" />
    <path
       inkscape:connector-curvature="0"
       id="path10538"
       d="m 163.93901,48.340851 c -0.87878,-0.120705 -1.18881,-0.177156 -1.69946,-0.309458 -0.75185,-0.194798 -1.30573,-0.403047 -2.03936,-0.766738 -1.25294,-0.621157 -2.07125,-1.205002 -3.1123,-2.220505 -4.05201,-3.952697 -5.08942,-10.279537 -2.5492,-15.546764 0.70274,-1.457126 1.38842,-2.438068 2.44443,-3.496944 1.58621,-1.59053 3.4565,-2.617406 5.53453,-3.038707 0.582,-0.117997 0.8709,-0.137413 2.00845,-0.13496 1.12863,0.0023 1.41947,0.02299 1.93173,0.136711 1.63261,0.36234 3.30622,1.154733 4.71163,2.230775 0.88333,0.676302 2.04564,1.943054 2.65734,2.896092 0.24427,0.38058 0.35954,0.482505 0.46907,0.414806 0.0333,-0.02058 0.0562,-3.161047 0.0562,-7.694136 V 13.15163 h 1.08102 1.081 l 0.016,16.021313 0.0159,16.021312 0.15042,0.262642 c 0.13966,0.243848 0.52275,0.509847 0.73428,0.509847 0.0533,0 0.0732,0.267087 0.0732,0.983855 v 0.983861 l -0.40602,0.0435 c -0.82318,0.08816 -1.51981,-0.211483 -2.0178,-0.867925 -0.44578,-0.587609 -0.48072,-0.766926 -0.48072,-2.466702 0,-1.235942 -0.016,-1.517393 -0.0892,-1.578261 -0.10441,-0.08665 -0.12512,-0.06584 -0.5811,0.584239 -1.06618,1.520007 -2.61308,2.811451 -4.39713,3.670982 -1.5084,0.726723 -2.6479,0.997227 -4.32591,1.026912 -0.59482,0.01051 -1.16491,0.0076 -1.26688,-0.0066 z m 3.18312,-2.086363 c 1.25922,-0.292635 2.47337,-0.826079 3.58975,-1.577174 1.50657,-1.013621 2.75592,-2.399625 3.26473,-3.621838 0.37999,-0.912791 0.37969,-0.907937 0.36129,-5.550205 l -0.0167,-4.215725 -0.26326,-0.538379 c -0.56443,-1.154215 -1.59322,-2.484454 -2.59652,-3.357341 -1.44218,-1.254739 -3.38821,-2.233162 -5.11224,-2.570335 -0.6447,-0.126083 -2.33635,-0.107668 -2.99725,0.03263 -1.21345,0.257606 -2.21228,0.677389 -3.24192,1.362479 -3.03515,2.019525 -4.85999,5.839598 -4.71025,9.860336 0.0382,1.023861 0.13127,1.652478 0.37864,2.55562 1.00386,3.664939 3.92938,6.650444 7.40001,7.551768 1.19281,0.309772 2.78558,0.337296 3.94372,0.06818 z m 24.28642,2.057976 c -2.15544,-0.262831 -4.23853,-1.158222 -5.99906,-2.578611 -2.1396,-1.726206 -3.77046,-4.49517 -4.34831,-7.382781 -0.60333,-3.014898 -0.2193,-6.01049 1.12078,-8.742551 0.66943,-1.364756 1.48169,-2.470082 2.62488,-3.571861 1.6862,-1.625135 3.74482,-2.687674 5.98371,-3.088465 0.78883,-0.141208 2.51902,-0.191988 3.33928,-0.098 2.61542,0.29967 4.85469,1.37631 6.81786,3.278023 1.17289,1.136179 1.91855,2.173083 2.63159,3.659471 0.91458,1.906478 1.30138,3.629428 1.30138,5.796877 0,2.180689 -0.39616,3.921851 -1.33577,5.870874 -1.72086,3.569577 -4.87388,6.051155 -8.56378,6.740127 -0.79676,0.148763 -2.77923,0.213636 -3.57256,0.116902 z m 3.15392,-2.02951 c 2.64369,-0.533247 4.98001,-2.252702 6.51665,-4.796053 1.69499,-2.805459 2.07571,-6.390969 1.01643,-9.572732 -1.19036,-3.575502 -4.08945,-6.297569 -7.48893,-7.031628 -0.84509,-0.182485 -2.576,-0.199003 -3.40016,-0.03241 -3.45208,0.697652 -6.33101,3.372275 -7.63501,7.093198 -0.6841,1.952046 -0.80711,4.209477 -0.34296,6.293752 0.96573,4.336693 4.39288,7.650796 8.43822,8.159876 0.67628,0.08511 2.20762,0.02481 2.89576,-0.113968 z m 23.87219,2.02624 c -3.62341,-0.422199 -6.8836,-2.566502 -8.84887,-5.820132 -1.28144,-2.121478 -1.92432,-4.4696 -1.92412,-7.027724 0,-2.213323 0.46283,-4.202178 1.42444,-6.123546 1.17008,-2.33794 2.9677,-4.134655 5.31296,-5.3103 1.69733,-0.850844 3.39641,-1.235263 5.45968,-1.235263 2.55596,0 4.76919,0.670462 6.66961,2.020452 0.6197,0.440215 1.64383,1.448754 2.04757,2.016387 0.38678,0.543824 0.90062,1.398975 0.90062,1.498877 0,0.06569 -1.77027,0.708024 -2.01186,0.730009 -0.0414,0.0036 -0.24622,-0.252629 -0.45519,-0.569766 -1.18877,-1.804094 -3.17096,-3.112618 -5.46244,-3.605976 -0.8435,-0.181608 -2.68583,-0.197899 -3.53418,-0.03124 -1.34266,0.263745 -2.6846,0.832742 -3.77028,1.598661 -0.71616,0.505212 -1.80326,1.594948 -2.33251,2.338153 -0.81421,1.143382 -1.59665,2.947032 -1.86272,4.293942 -0.30717,1.554875 -0.29836,3.287424 0.0246,4.83543 0.28951,1.387807 1.07876,3.190112 1.89984,4.338408 1.48602,2.078231 3.63984,3.51814 6.02949,4.030905 0.84405,0.181113 2.51487,0.195608 3.34876,0.02905 2.70381,-0.540043 5.18582,-2.133369 6.10308,-3.91788 0.14421,-0.280546 0.29,-0.500628 0.32401,-0.48908 0.0341,0.01153 0.49974,0.143747 1.03503,0.29378 0.53527,0.150032 0.97324,0.300597 0.97327,0.334589 3e-5,0.03401 -0.0854,0.242554 -0.18993,0.46349 -0.62331,1.317873 -1.97169,2.753518 -3.42645,3.648172 -1.40233,0.86242 -3.22479,1.470096 -4.9865,1.662705 -0.6867,0.07508 -2.09478,0.074 -2.74784,-0.0023 z M 93.333989,30.638886 V 13.518868 l 7.987491,0.01963 7.98747,0.01963 0.59939,0.137259 c 2.17212,0.497424 4.22169,1.719834 5.71962,3.411348 1.40486,1.586392 2.45744,3.690703 2.85935,5.716375 0.18824,0.948754 0.23175,2.520262 0.0979,3.534576 -0.69399,5.256974 -4.56747,9.268507 -9.44582,9.782449 -0.31459,0.03314 -2.5246,0.06072 -4.91116,0.06131 -4.22619,7.29e-4 -4.340845,0.0044 -4.403142,0.120603 -0.04279,0.0799 -0.06391,1.995716 -0.06391,5.778176 v 5.658648 h -3.213532 -3.213539 z m 15.356991,-0.209067 c 1.88675,-0.549619 3.11079,-2.242629 3.37449,-4.667377 0.30856,-2.837137 -0.90395,-5.384663 -2.97747,-6.255863 -0.83097,-0.349136 -0.99714,-0.360472 -5.28239,-0.360472 -3.808986,0 -3.918368,0.0036 -3.980572,0.119529 -0.07424,0.138749 -0.09052,11.054288 -0.01675,11.164912 0.02494,0.03737 0.08708,0.08485 0.138103,0.10548 0.05099,0.02065 1.955919,0.02948 4.233199,0.01963 3.72537,-0.01606 4.17769,-0.02869 4.51131,-0.125858 z m 13.44121,0.209731 V 13.520189 l 9.77965,0.01656 9.77964,0.01657 0.59448,0.164346 c 1.99145,0.550531 3.80413,2.074012 4.834,4.062795 0.40009,0.772613 0.72971,1.691492 0.91889,2.561583 0.19836,0.912426 0.1981,2.814897 -6.3e-4,3.728703 -0.18339,0.843691 -0.4491,1.580648 -0.86132,2.388791 -0.75631,1.48279 -1.74997,2.509447 -3.21442,3.321139 -0.36121,0.200205 -0.57157,0.354246 -0.57148,0.418462 0,0.07146 0.15105,0.154923 0.50862,0.281219 2.13965,0.755737 3.92263,2.282992 4.86427,4.166624 0.24146,0.483016 0.58091,1.493841 0.70913,2.11175 0.28376,1.367391 0.26398,3.16285 -0.0483,4.392267 -0.93309,3.672851 -4.37496,6.08465 -9.34006,6.544804 -0.42357,0.03927 -3.9349,0.06299 -9.31616,0.06307 l -8.63626,5e-5 z m 17.30364,11.592841 c 1.57114,-0.284467 2.77765,-1.269028 3.37874,-2.757176 0.26014,-0.644062 0.34416,-1.183032 0.31264,-2.005796 -0.0239,-0.624997 -0.06,-0.836012 -0.2294,-1.342217 -0.43234,-1.291926 -1.1809,-2.217374 -2.21282,-2.73568 -0.77389,-0.388697 -0.3952,-0.365588 -6.34756,-0.387361 -2.99105,-0.01095 -5.50085,-0.0044 -5.57732,0.01452 l -0.13906,0.03445 v 4.597676 c 0,3.620319 0.0165,4.604298 0.0773,4.628846 0.0425,0.01715 2.37153,0.03241 5.17565,0.03387 4.03554,0.0023 5.19502,-0.01474 5.56189,-0.08119 z M 138.5578,27.824733 c 1.18511,-0.240796 2.26929,-1.069297 2.78464,-2.127968 0.38661,-0.794174 0.46817,-1.179776 0.47057,-2.224753 0.002,-1.07902 -0.10743,-1.624975 -0.47633,-2.366078 -0.46804,-0.940272 -1.43335,-1.727031 -2.4365,-1.985833 -0.33564,-0.0866 -0.97015,-0.09645 -5.31468,-0.08251 l -4.93355,0.01584 -0.016,4.3568 c -0.009,2.396245 -0.003,4.391575 0.0135,4.434062 0.0233,0.06088 1.02668,0.07725 4.73074,0.07725 4.02313,0 4.76994,-0.01394 5.17758,-0.09679 z"
       style="fill:#ffffff;fill-opacity:1;stroke-width:0.0617988"
       sodipodi:nodetypes="ccccscscccccsccccccsscccsccscccccsccccscscssccccccccsccsccccscccccccccccccsccsccccccccccscccccsccccccccccccccscccccccscccccccccccsccsccccccccccccscccccscccccccccccccscc"
       inkscape:export-filename="/home/michel/git/codata/pbdoc/sigaex/src/main/webapp/imagens/pbdoc.png"
       inkscape:export-xdpi="96.245865"
       inkscape:export-ydpi="96.245865" />
  </g>
</svg>
