<?xml version="1.0" encoding="utf-8"?>
<!-- Generator: Adobe Illustrator 23.0.3, SVG Export Plug-In . SVG Version: 6.00 Build 0)  -->
<svg version="1.1" xmlns="http://www.w3.org/2000/svg" xmlns:xlink="http://www.w3.org/1999/xlink" x="0px" y="0px"
	 viewBox="0 0 108 108" style="enable-background:new 0 0 108 108;" xml:space="preserve">
<style type="text/css">
	.st0{fill:#FFFFFF;stroke:#000000;stroke-width:0.3;stroke-miterlimit:10;}
	.st1{fill-rule:evenodd;clip-rule:evenodd;fill:#6DB945;}
	.st2{fill-rule:evenodd;clip-rule:evenodd;fill:#BBD531;}
	.st3{fill-rule:evenodd;clip-rule:evenodd;fill:#35B34A;}
</style>
<g id="Background_Layer">
	<rect id="Background_Colour" class="st0" width="108" height="108"/>
</g>
<g id="Foreground_Layer">
	<g>
		<path class="st1" d="M53,58.4h-3.5v2.1c0,0.4-0.3,0.8-0.8,0.8h-1.1v2.5c0,0.1,0.1,0.3,0.3,0.3h1.8v-1c0-0.3,0.3-0.6,0.6-0.6h3
			v-3.8C53.2,58.5,53.1,58.4,53,58.4z"/>
		<path class="st1" d="M37.5,52h5.9c0.2,0,0.3,0.1,0.3,0.3v5.9c0,0.2-0.1,0.3-0.3,0.3h-5.9c-0.2,0-0.3-0.1-0.3-0.3v-5.9
			C37.2,52.1,37.3,52,37.5,52L37.5,52z"/>
		<path class="st2" d="M29.9,59.1h4.9c0.1,0,0.2,0.1,0.2,0.2v4.9c0,0.1-0.1,0.2-0.2,0.2h-4.9c-0.1,0-0.2-0.1-0.2-0.2v-4.9
			C29.7,59.2,29.8,59.1,29.9,59.1L29.9,59.1z"/>
		<path class="st3" d="M25.3,51.8h4.9c0.1,0,0.2,0.1,0.2,0.2v4.9c0,0.1-0.1,0.2-0.2,0.2h-4.9c-0.1,0-0.2-0.1-0.2-0.2V52
			C25.1,51.9,25.2,51.8,25.3,51.8L25.3,51.8z"/>
		<path class="st1" d="M48,46.1h4.9c0.1,0,0.2,0.1,0.2,0.2v4.9c0,0.1-0.1,0.2-0.2,0.2H48c-0.1,0-0.2-0.1-0.2-0.2v-4.9
			C47.8,46.2,47.9,46.1,48,46.1L48,46.1z"/>
		<path class="st1" d="M24.8,40.1h8.4c0.2,0,0.4,0.2,0.4,0.4v8.4c0,0.2-0.2,0.4-0.4,0.4h-8.4c-0.2,0-0.4-0.2-0.4-0.4v-8.4
			C24.4,40.2,24.5,40.1,24.8,40.1L24.8,40.1z"/>
		<path class="st2" d="M78.1,48.6h-4.9c-0.1,0-0.2-0.1-0.2-0.2v-4.9c0-0.1,0.1-0.2,0.2-0.2h4.9c0.1,0,0.2,0.1,0.2,0.2v4.9
			C78.3,48.5,78.2,48.6,78.1,48.6L78.1,48.6z"/>
		<path class="st3" d="M82.7,56h-4.9c-0.1,0-0.2-0.1-0.2-0.2v-4.9c0-0.1,0.1-0.2,0.2-0.2h4.9c0.1,0,0.2,0.1,0.2,0.2v4.9
			C82.9,55.8,82.8,56,82.7,56L82.7,56z"/>
		<path class="st1" d="M60,61.7h-4.9c-0.1,0-0.2-0.1-0.2-0.2v-4.9c0-0.1,0.1-0.2,0.2-0.2H60c0.1,0,0.2,0.1,0.2,0.2v4.9
			C60.2,61.6,60.1,61.7,60,61.7L60,61.7z"/>
		<path class="st3" d="M55.1,68.2h-4.9c-0.1,0-0.2-0.1-0.2-0.2V63c0-0.1,0.1-0.2,0.2-0.2h4.9c0.1,0,0.2,0.1,0.2,0.2V68
			C55.4,68.1,55.3,68.2,55.1,68.2L55.1,68.2z"/>
		<path class="st2" d="M73.8,58.9c0-0.6,0.5-1.1,1.1-1.1h0v-4.1c0-0.2-0.1-0.3-0.3-0.3h-6.4c-0.2,0-0.3,0.1-0.3,0.3v6.4
			c0,0.2,0.1,0.3,0.3,0.3h5.6V58.9z"/>
		<path class="st1" d="M83.2,67.7h-8.4c-0.2,0-0.4-0.2-0.4-0.4v-8.4c0-0.2,0.2-0.4,0.4-0.4h8.4c0.2,0,0.4,0.2,0.4,0.4v8.4
			C83.6,67.5,83.5,67.7,83.2,67.7L83.2,67.7z"/>
		<path class="st1" d="M67.4,53.7c0-0.5,0.4-0.8,0.8-0.8h2.6v-3.4c0-0.2-0.1-0.3-0.3-0.3h-5.9c-0.2,0-0.3,0.1-0.3,0.3v5.9
			c0,0.2,0.1,0.3,0.3,0.3h2.8V53.7z"/>
		<path class="st3" d="M67.4,60.1v-3.9h-2.8c-0.4,0-0.8-0.3-0.8-0.8v-0.4h-1.2c-0.2,0-0.3,0.2-0.3,0.3v6.9c0,0.2,0.2,0.3,0.3,0.3
			h6.9c0.2,0,0.3-0.2,0.3-0.3V61h-1.7C67.7,61,67.4,60.6,67.4,60.1z"/>
		<path class="st2" d="M63.8,49.5c0-0.4,0.3-0.8,0.8-0.8h1v-1.5c0-0.2-0.1-0.3-0.3-0.3h-5.9c-0.2,0-0.3,0.1-0.3,0.3v5.9
			c0,0.2,0.1,0.3,0.3,0.3h4.5V49.5z"/>
		<path class="st3" d="M71.1,39.8h-8.5c-0.2,0-0.4,0.2-0.4,0.4v6.2h3.1c0.4,0,0.8,0.3,0.8,0.8v1.5h4.5c0.3,0,0.5,0.1,0.6,0.4
			c0.2,0,0.4-0.2,0.4-0.4v-8.5C71.5,40,71.3,39.8,71.1,39.8z"/>
		<path class="st1" d="M58.6,47.2c0-0.4,0.3-0.8,0.8-0.8h1.1v-2.5c0-0.1-0.1-0.3-0.3-0.3H55c-0.1,0-0.3,0.1-0.3,0.3v5.2
			c0,0.1,0.1,0.3,0.3,0.3h3.5V47.2z"/>
		<path class="st3" d="M42.7,61.3c-0.4,0-0.8-0.3-0.8-0.8V59h-4.5c-0.3,0-0.5-0.1-0.6-0.4c-0.2,0-0.4,0.2-0.4,0.4v8.5
			c0,0.2,0.2,0.4,0.4,0.4h8.5c0.2,0,0.4-0.2,0.4-0.4v-6.2H42.7z"/>
		<path class="st2" d="M36.7,52.3c0-0.4,0.3-0.8,0.8-0.8h2.7v-3.9c0-0.2-0.1-0.3-0.3-0.3h-5.6v1.6c0,0.6-0.5,1.1-1.1,1.1h0V54
			c0,0.2,0.1,0.3,0.3,0.3h3.3V52.3z"/>
		<path class="st3" d="M45.4,45.1h-6.9c-0.2,0-0.3,0.2-0.3,0.3v1.3h1.7c0.5,0,0.8,0.4,0.8,0.8v3.9h2.8c0.4,0,0.8,0.3,0.8,0.8v0.4
			h1.2c0.2,0,0.3-0.2,0.3-0.3v-6.9C45.7,45.2,45.6,45.1,45.4,45.1z"/>
		<path class="st2" d="M48.7,54.3h-4.5v4c0,0.4-0.3,0.8-0.8,0.8h-1v1.5c0,0.2,0.1,0.3,0.3,0.3h5.9c0.2,0,0.3-0.1,0.3-0.3v-5.9
			C49,54.4,48.8,54.3,48.7,54.3z"/>
	</g>
</g>
</svg>
